<svg width="27" height="27" viewBox="0 0 27 27" fill="none" xmlns="http://www.w3.org/2000/svg">
<g clip-path="url(#clip0_0_71)">
<path d="M13.5 0.84375C6.51037 0.84375 0.84375 6.51037 0.84375 13.5L0.844172 13.5224L0.84375 13.5447C0.84375 20.5099 6.47873 26.1562 13.4304 26.1562L13.4574 26.1554L13.5 26.1562C20.4896 26.1562 26.1562 20.4896 26.1562 13.5C26.1562 6.51037 20.4896 0.84375 13.5 0.84375ZM25.3125 13.5C25.3125 14.51 25.1851 15.49 24.9472 16.4253C24.837 16.3493 24.546 16.6632 24.4742 16.2473C24.3844 15.7309 23.8022 15.3723 23.4887 15.6191C23.1753 15.8659 22.2796 16.5835 22.2353 17.0324C22.1902 17.4808 21.8092 18.0191 21.6308 17.6386C21.4511 17.2572 20.9145 16.068 20.9364 15.7541C20.9583 15.4402 20.6892 15.8663 20.2875 15.2381C19.8842 14.61 19.1903 15.1478 18.6304 14.834C18.0706 14.5197 17.4437 14.0936 17.1298 13.9594C16.8172 13.8244 17.6896 15.2153 17.8019 15.036C17.9145 14.8567 18.3617 15.1706 18.4963 15.1706C18.6308 15.1706 18.9886 15.4845 18.765 15.7764C18.5414 16.0684 16.5489 17.2808 16.3472 16.9653C16.1447 16.6497 14.9593 14.2058 14.7572 14.3556C14.5555 14.5053 16.0114 17.0547 16.2578 17.2117C16.5033 17.369 17.2429 17.2344 17.6006 17.0775C17.9592 16.9206 16.8619 18.8274 16.3924 19.0519C15.9224 19.2759 15.5419 19.9716 15.7427 20.2854C15.9443 20.5993 15.9667 21.7886 15.5419 21.9459C15.1158 22.1025 14.9593 22.3492 15.0934 22.6412C15.2272 22.9323 14.7804 23.4255 14.5787 23.7397C14.3767 24.0536 13.5937 24.7042 13.5262 24.8839C13.4595 25.0636 12.4968 25.0185 12.1154 25.0185C11.7353 25.0185 12.026 24.5472 11.9808 24.1439C11.937 23.7397 11.6011 23.3584 11.6011 23.1567C11.6011 22.9546 11.4885 22.4834 11.3324 22.2594C11.1759 22.0345 11.1303 21.6084 11.2873 21.3621C11.4446 21.1148 11.556 20.3977 11.2434 20.0834C10.9295 19.7695 10.5709 19.2308 10.8177 18.8047C11.0641 18.3786 10.549 18.4237 10.1237 18.2212C9.69806 18.0191 8.82478 18.2887 8.37717 18.3562C7.92914 18.4233 7.48195 18.244 7.34737 18.0191C7.21322 17.7951 6.92212 17.2344 6.62386 17.0994C6.32644 16.9653 6.49688 16.3818 6.67575 16.1578C6.85547 15.9338 6.49688 15.5073 6.67575 15.3271C6.85547 15.1478 6.96684 14.4977 7.32502 14.3556C7.68361 14.2138 7.61611 14.1164 7.62708 13.7797C7.63847 13.443 8.02997 13.443 8.09662 13.2638C8.16412 13.084 8.36536 12.9946 8.76952 12.9946C9.17241 12.9946 9.85458 12.7588 10.1794 12.6803C10.5043 12.6018 11.0641 12.4896 11.019 12.8039C10.9742 13.1178 10.9856 13.4764 11.1978 13.4764C11.4109 13.4764 11.702 13.6 12.0378 13.8092C12.3736 14.0181 12.3846 13.8472 12.4297 13.6114C12.4748 13.3755 12.9444 13.4654 13.4304 13.6898C13.9164 13.9143 14.5792 13.7569 14.7909 13.735C15.004 13.7118 15.0938 13.0731 15.0377 12.86C14.9812 12.647 14.6458 12.9608 14.4332 12.8263C14.2206 12.6921 13.929 12.86 13.7168 12.6689C13.5038 12.4786 13.47 12.0298 13.7168 12.0188C13.9628 12.0074 14.0864 11.9289 14.2315 11.761C14.3775 11.5927 14.9259 11.4919 15.1386 11.6598C15.3508 11.8281 15.6651 11.9403 15.8545 11.7496C16.0448 11.5594 15.4748 11.1894 15.3508 11.0881C15.2276 10.9873 15.3284 10.662 15.2056 10.662C15.082 10.662 14.9812 10.7177 15.0487 10.8751C15.1158 11.032 14.6905 11.3122 14.6226 11.1556C14.556 10.9983 14.4442 10.6958 14.2762 10.6958C14.1088 10.6958 13.8847 11.4585 13.8734 11.5817C13.862 11.7053 13.5709 11.907 13.3363 11.907C13.1017 11.907 13.1018 12.1766 13.2245 12.3002C13.3477 12.4234 13.2578 12.917 13.0343 12.9452C12.8102 12.9739 12.7318 12.8946 12.6984 12.7035C12.6651 12.5132 12.4411 12.5356 12.4297 12.1428C12.4183 11.7501 12.1719 11.5598 12.0154 11.3801C11.8589 11.2004 11.4556 10.6734 11.2991 10.9093C11.1426 11.1451 11.8589 11.6497 12.0487 11.7838C12.2399 11.9184 12.2061 12.2099 12.1053 12.2774C12.0045 12.3449 11.8142 12.8946 11.7024 12.9389C11.5898 12.9836 11.483 12.7718 11.483 12.7718C11.3151 12.7048 11.7176 12.5027 11.7851 12.4019C11.8517 12.301 11.0801 11.5944 10.9409 11.3923C10.8017 11.1902 10.2068 11.5602 9.93853 11.4261C9.6698 11.2919 9.26648 11.9306 9.23358 12.3006C9.19941 12.671 8.76277 12.7714 8.35988 12.7714C7.95741 12.7714 7.68825 12.4689 7.82325 12.166C7.95741 11.8631 7.75575 11.3586 7.99116 11.3248C8.22614 11.2915 8.89692 11.3248 9.0315 10.9548C9.16566 10.5848 8.3932 10.2482 8.69611 10.1811C8.99775 10.1136 9.46856 9.64322 9.80437 9.37364C10.1393 9.10448 10.1731 8.76825 10.4752 8.74463C10.7781 8.72142 10.4085 8.16202 10.6772 7.99411C10.9464 7.82578 11.013 8.59992 11.2147 8.59992C11.4164 8.59992 11.8184 8.53242 12.1546 8.70075C12.4909 8.86908 12.5913 8.53242 12.7259 8.09452C12.86 7.65745 13.1958 7.42163 13.867 7.08539C14.5387 6.74873 13.0954 7.18622 12.8263 6.84956C12.5575 6.51291 12.9271 5.77252 13.0954 5.24981C13.2633 4.72669 12.558 5.77252 12.1884 6.31125C11.8184 6.84956 12.2892 7.08497 12.255 7.45495C12.2217 7.82536 11.618 8.26242 11.618 8.26242C11.3493 8.29617 11.3826 7.75786 11.2485 7.52245C11.1139 7.28705 10.8785 7.38787 10.5089 7.65703C10.1393 7.92619 10.106 7.01789 10.0056 6.64748C9.90562 6.27792 10.6102 5.80627 10.9413 5.55483C11.2721 5.30255 11.8184 4.0905 12.4234 3.14887C13.0283 2.20683 13.9012 2.67764 14.1362 3.04805C14.372 3.41761 14.9753 3.1822 15.5469 3.85552C16.1182 4.52841 15.4124 4.83089 14.7753 4.55752C14.1362 4.28414 14.9091 5.23505 15.2778 5.5042C15.6473 5.77294 15.849 4.89839 15.9836 4.69673C16.1177 4.49466 16.621 4.59591 16.9902 4.05717C17.3602 3.51886 18.1993 3.62011 18.6785 3.67917C19.1582 3.73866 19.0388 3.38428 18.7367 3.09445C18.5131 2.88014 18.9705 3.06787 19.5088 3.3307C22.9821 5.3865 25.3125 9.1703 25.3125 13.5ZM8.45522 9.48038C8.34384 9.3652 8.56786 8.91169 8.66827 8.77711C8.76952 8.64253 8.38814 8.68725 8.41134 8.87836C8.4337 9.06863 8.26538 9.36056 8.03039 9.43903C7.79541 9.5175 7.52752 9.49472 7.66125 9.28167C7.79498 9.06862 7.67222 8.87794 7.57139 8.67586C7.47098 8.47378 8.1308 8.35059 8.2658 8.22741C8.39995 8.10422 8.05359 8.02533 8.06414 7.83506C8.07553 7.64395 8.154 7.47605 8.28731 7.45369C8.42189 7.43133 8.54761 7.34527 8.66827 7.35286C9.03825 7.37564 8.92519 8.21644 9.06019 8.48602C9.19434 8.75475 9.5753 9.08044 9.54155 9.31542C9.5078 9.55125 9.43608 9.68583 9.16186 9.61833C8.88637 9.55083 8.44552 9.96595 8.27677 9.88748C8.10844 9.80859 8.56786 9.59555 8.45522 9.48038ZM6.04294 4.76339C6.37917 4.9313 6.64706 4.6267 6.88163 4.56131C7.15964 4.48453 7.31827 5.47003 7.04995 5.43628C6.78122 5.40253 6.47916 5.97459 6.09103 5.94084C5.70248 5.90709 5.87461 5.63836 5.43797 5.23462C5.34431 5.14772 5.30592 5.06925 5.30255 5.00048C5.39578 4.91062 5.48859 4.82034 5.5852 4.73386C5.73623 4.69378 5.91553 4.69969 6.04294 4.76339ZM16.5485 21.6979C16.8619 21.6308 16.8016 21.0343 17.0859 21.0026C17.6905 20.9355 17.1083 22.6176 16.8847 23.0888C16.6607 23.56 16.5704 23.5373 16.3574 23.2457C16.1435 22.9546 16.2127 22.483 16.3574 22.259C16.5016 22.0341 16.2346 21.7654 16.5485 21.6979Z" fill="white"/>
</g>
<defs>
<clipPath id="clip0_0_71">
<rect width="27" height="27" fill="white"/>
</clipPath>
</defs>
</svg>
