<svg width="98" height="85" viewBox="0 0 98 85" fill="none" xmlns="http://www.w3.org/2000/svg">
<path fill-rule="evenodd" clip-rule="evenodd" d="M56.2436 1.16764C68.4627 3.7648 78.4042 13.5896 81.3634 25.9921C82.6611 31.4315 82.3854 38.5006 80.676 43.6273C77.7617 52.3668 71.956 59.0972 63.9221 63.0486C57.012 66.4476 51.006 67.3788 43.944 66.1465C20.2744 62.0172 8.71057 35.721 21.6685 15.4926C27.6706 6.12264 37.7442 0.61218 48.95 0.569792C51.3719 0.560961 54.6539 0.82986 56.2436 1.16764ZM41.9043 2.62959C41.4199 2.7519 40.5436 3.03537 39.9566 3.25879C38.9926 3.62571 38.9556 3.73124 39.5717 4.3494C40.1877 4.96712 40.4194 4.92915 41.9597 3.95908C42.8981 3.36785 43.9629 2.76956 44.3262 2.62915C45.1409 2.31433 43.1492 2.31433 41.9043 2.62959ZM55.9957 3.58686C57.5629 4.49467 58.356 4.73266 58.7479 4.4121C59.6841 3.64646 59.3776 3.35725 57.0631 2.82166C53.7433 2.05338 53.5667 2.17966 55.9957 3.58686ZM44.2465 4.32688C43.1126 4.90663 42.061 5.58219 41.9095 5.82769C41.6537 6.24274 43.7375 7.5241 44.0158 7.12229C44.0849 7.0225 44.6988 6.18225 45.3791 5.25545C46.0599 4.32909 46.5474 3.50385 46.4624 3.42172C46.3774 3.33959 45.38 3.74714 44.2465 4.32688ZM53.2272 5.1742C54.786 7.39208 54.7081 7.35587 56.1833 6.53637C57.2498 5.94426 57.2476 5.94072 54.8622 4.56929C53.5482 3.81381 52.3284 3.19388 52.1518 3.19123C51.9748 3.18903 52.4592 4.08138 53.2272 5.1742ZM47.0785 5.25059C46.2915 6.2498 45.6473 7.27153 45.6473 7.52056C45.6473 7.99611 48.197 8.72598 48.566 8.35596C48.6831 8.23807 48.7183 7.08255 48.6444 5.78795L48.5096 3.43408L47.0785 5.25059ZM50.0509 6.09217V8.55598L51.482 8.24867C52.269 8.07956 52.9837 7.87689 53.07 7.79874C53.2307 7.65259 50.4582 3.6288 50.1962 3.6288C50.1165 3.6288 50.0509 4.73752 50.0509 6.09217ZM34.7537 5.36142C27.3077 9.47793 22.2586 15.3218 19.4835 23.0355C18.5526 25.6234 17.3019 32.3291 17.7507 32.3291C17.8202 32.3291 19.2677 31.427 20.9675 30.3249C24.6678 27.9243 25.1566 27.1842 24.5317 24.9266C23.769 22.1736 23.9623 17.9344 24.9377 16.0172C26.6987 12.5559 31.108 10.2917 34.733 10.9867C37.2294 11.4653 40.0486 13.0195 42.1843 15.0948C45.4258 18.2439 45.8107 21.2066 43.4719 25.0013C42.973 25.8102 42.5648 27.194 42.5648 28.0762C42.5648 28.9584 42.3666 29.6799 42.1244 29.6799C41.8822 29.6799 41.6841 29.9554 41.6841 30.2918C41.6841 30.6283 40.9412 31.6319 40.0327 32.5216L38.3814 34.1399L35.2434 33.8502C33.2072 33.6621 32.0046 33.7244 31.8179 34.0277C31.6593 34.2847 31.8232 36.3423 32.1821 38.5999C32.5409 40.858 32.9553 43.6485 33.1028 44.8014C33.4203 47.2846 33.9725 47.6807 37.6535 48.0666C39.6879 48.2799 40.4969 48.1805 41.2948 47.6202C42.4503 46.8086 44.3262 46.6545 44.3262 47.3712C44.3262 47.6304 44.6944 47.7253 45.1449 47.5822C46.425 47.1747 47.0137 48.2437 46.5122 50.0646C45.7737 52.7465 44.8278 53.2371 40.0098 53.4362C32.2921 53.7554 30.4669 53.7484 29.5038 53.3956C28.6803 53.094 28.48 53.2689 28.0088 54.7012C27.4671 56.3464 27.4742 56.3641 29.3999 58.0799C31.3106 59.7825 31.3727 59.8019 34.198 59.5882C35.9233 59.4575 38.3876 58.8367 40.4009 58.0261C42.2385 57.286 45.188 56.3804 46.956 56.0135C48.7236 55.6466 50.3613 55.1547 50.5947 54.9207C51.1465 54.3674 51.1306 53.1488 50.5181 49.1078C50.02 45.8222 49.9936 45.775 47.1709 43.0926C44.2487 40.3149 43.837 39.328 44.9727 37.8224C45.3285 37.3512 45.6257 36.5414 45.6332 36.0235C45.6416 35.4601 46.0013 34.9885 46.528 34.8503C47.1229 34.6945 47.4087 34.2481 47.4087 33.4745C47.4087 32.7609 47.6531 32.3291 48.0561 32.3291C48.5268 32.3291 48.677 31.8818 48.6065 30.6897C48.5101 29.059 48.5206 29.0484 50.5476 28.7469C53.1519 28.3596 54.2602 27.7508 56.4361 25.5117C59.0848 22.786 61.1087 21.9506 65.023 21.9661C68.6555 21.9802 70.0708 22.5224 73.2775 25.1267C80.2946 30.8257 80.9798 41.1988 74.7258 47.0639C71.9692 49.6495 69.3905 50.9203 66.622 51.0576C64.3924 51.1684 64.3607 51.1901 64.2427 52.6776C64.0987 54.4818 65.2546 56.5319 67.1975 57.9192L68.5789 58.9052L71.5905 55.8307C75.157 52.1902 77.7304 48.0043 79.3884 43.1469C80.4496 40.0376 80.5976 38.9271 80.6249 33.8745C80.6508 29.0286 80.495 27.6209 79.6235 24.8383C78.601 21.5736 76.2468 16.4336 75.7739 16.4336C75.4921 16.4336 71.6786 18.5878 70.867 19.2051C70.4702 19.5071 70.4504 19.8507 70.7926 20.4918C71.4302 21.6862 71.1154 21.8526 69.8713 20.9788C69.2971 20.5757 68.2337 20.1809 67.5075 20.101C65.7421 19.9072 65.555 19.629 66.9527 19.2771C67.5868 19.1177 68.1055 18.7495 68.1055 18.4589C68.1055 18.0306 66.3199 15.0259 64.9596 13.1653C64.7993 12.9467 63.3505 13.3428 61.7402 14.0466C59.6445 14.9619 58.8725 15.5147 59.0245 15.9898C60.6098 20.9369 60.5802 20.7695 59.9131 21.026C59.2402 21.2852 58.9509 20.7501 57.9452 17.3824C57.5229 15.9704 57.2168 15.5801 56.691 15.7849C56.3088 15.9337 54.6583 16.1695 53.0233 16.3086L50.0509 16.5616V19.7676C50.0509 22.5851 50.1442 22.9556 50.8215 22.8218C51.2456 22.7379 52.9792 22.5661 54.6746 22.4403L57.7571 22.2112L56.7174 23.0752C56.1459 23.5508 55.1551 23.942 54.5157 23.9447C53.8767 23.9473 52.6107 24.0727 51.7022 24.2233C50.3353 24.4498 50.0509 24.6772 50.0509 25.543C50.0509 26.1683 49.7911 26.5891 49.4049 26.5891C48.8826 26.5891 48.7346 25.6366 48.6342 21.6217L48.5096 16.6543L46.7825 16.4336C44.2408 16.1086 44.1871 15.1089 46.7116 15.1089H48.7298V12.5175V9.92609L47.0785 9.65234C44.5195 9.22801 44.4447 9.25848 43.3927 11.135C42.8479 12.1064 42.2526 12.9012 42.0694 12.9012C41.2411 12.9012 41.2495 11.8605 42.0897 10.433C42.593 9.57727 43.0052 8.80855 43.0052 8.72509C43.0052 8.6412 42.3433 8.18156 41.5339 7.70292L40.0631 6.83264L38.2229 8.36524C37.0159 9.37063 36.1268 9.79981 35.6406 9.6126C35.0342 9.37946 35.2478 9.02579 36.812 7.67511C38.5932 6.13721 38.6835 5.95574 38.1172 5.0466C37.7825 4.50968 37.4082 4.07388 37.2845 4.07829C37.1612 4.08271 36.0224 4.66025 34.7537 5.36142ZM60.3799 4.97463C59.9497 5.45193 59.6788 5.90231 59.7779 5.97561C59.8774 6.04934 61.0964 7.16777 62.4866 8.46149L65.0142 10.8132L66.5568 9.76007C67.4053 9.18077 68.1007 8.571 68.1024 8.40542C68.1068 7.96829 66.0226 6.56242 63.4232 5.24971C61.1827 4.11759 61.1558 4.11538 60.3799 4.97463ZM56.6197 7.89279L55.4822 8.60102L56.8002 11.0821C57.5255 12.4469 58.179 13.639 58.2525 13.7318C58.4551 13.9865 63.2616 11.9594 63.2616 11.619C63.2616 11.0308 59.0328 7.16159 58.4027 7.17307C58.0478 7.17925 57.2454 7.50335 56.6197 7.89279ZM13.2339 11.687C12.4294 15.2118 10.4002 19.3954 8.70529 21.0238L7.38289 22.2937L7.07068 21.0455C6.61888 19.24 7.57357 16.1201 9.39841 13.439C10.7287 11.4843 13.1758 8.92732 13.7161 8.92732C13.7971 8.92732 13.58 10.1694 13.2339 11.687ZM89.9133 14.4466C91.1441 16.5356 91.8637 19.4356 91.5541 21.0596L91.3326 22.2222L90.2348 21.2044C88.0189 19.1495 85.8035 14.5332 85.0853 10.4727L84.7726 8.70655L86.8225 10.6935C87.9502 11.7863 89.3409 13.4752 89.9133 14.4466ZM51.2619 9.68501C50.094 9.86251 50.0509 9.96451 50.0509 12.5502V15.2308L53.0233 14.9261C54.6583 14.7583 56.1661 14.4506 56.3748 14.2422C56.5867 14.0302 56.2154 12.8707 55.5342 11.6159C54.2739 9.29424 54.1638 9.24435 51.2619 9.68501ZM67.8853 10.5288C66.9166 11.1801 66.0693 11.7536 66.0019 11.8035C65.935 11.8534 66.5295 12.8866 67.323 14.0996C68.117 15.3125 68.9933 16.6817 69.2711 17.1418C69.7573 17.9467 69.8714 17.9286 72.2436 16.6698C73.6007 15.9496 74.7109 15.1849 74.7109 14.9703C74.7109 14.7553 73.5712 13.4015 72.1788 11.962L69.6468 9.34458L67.8853 10.5288ZM15.9104 18.2412C14.95 20.9784 12.1176 25.6057 10.125 27.6929L8.43887 29.4591L8.29399 27.9411C7.95007 24.3447 10.1364 20.5783 14.3476 17.5145C15.4507 16.7117 16.4071 16.109 16.4732 16.1753C16.5392 16.2415 16.286 17.1714 15.9104 18.2412ZM84.8994 17.582C87.2241 19.293 89.2347 21.9281 90.0534 24.3367C90.6655 26.1374 90.7284 29.2383 90.1529 29.2383C89.4906 29.2383 86.8194 25.7188 85.1227 22.6112C83.4978 19.6343 82.0477 15.992 82.4876 15.992C82.6263 15.992 83.7113 16.7073 84.8994 17.582ZM5.81082 21.6248C6.44493 24.6242 6.70563 34.5805 6.16443 35.1232C5.78704 35.5016 4.10311 32.9786 3.44478 31.0491C2.70014 28.8665 2.81683 22.8655 3.66276 19.8432C4.51705 16.7908 4.84732 17.0645 5.81082 21.6248ZM95.0602 19.6347C95.3724 20.6666 95.627 23.5976 95.6256 26.1475C95.6239 30.0578 95.4737 31.065 94.667 32.5795C94.1412 33.5672 93.4146 34.6216 93.0526 34.9227C91.5849 36.1441 91.5863 27.3547 93.0553 20.7386C93.419 19.0996 93.8915 17.7582 94.1051 17.7582C94.3182 17.7582 94.7485 18.6029 95.0602 19.6347ZM13.0591 31.0045C12.3713 34.1403 10.2007 39.7563 9.14961 41.118L8.3301 42.1799L7.77922 40.5052C6.64353 37.0558 8.08438 32.3463 11.4509 28.504C13.1912 26.518 13.2885 26.4685 13.4365 27.4955C13.5219 28.0899 13.3519 29.6688 13.0591 31.0045ZM90.0098 32.6837C91.1208 35.0919 91.5105 39.0437 90.8354 41.0562C90.3546 42.4912 89.7618 41.8974 88.1242 38.339C86.4253 34.6481 85.272 30.4592 85.2975 28.0709L85.3156 26.3683L87.1228 28.3552C88.1167 29.448 89.4157 31.3957 90.0098 32.6837ZM3.62533 34.3439C5.71658 38.0935 8.29575 45.3811 8.12886 47.0674L7.99675 48.4004L6.29301 46.8961C4.18678 45.0363 2.84193 42.931 1.92467 40.0561C0.615484 35.9546 0.434497 30.4958 1.63271 31.2381C1.85157 31.3741 2.74813 32.7715 3.62533 34.3439ZM97.5108 35.1969C97.325 38.7545 97.0797 39.8221 95.8912 42.2431C94.6243 44.8235 91.5299 48.2247 90.4497 48.2247C89.5817 48.2247 91.6871 41.1706 93.9175 36.6059C95.4152 33.5416 97.0282 31.0045 97.4791 31.0045C97.6169 31.0045 97.631 32.8912 97.5108 35.1969ZM14.0992 37.9588C14.7289 41.7786 14.112 49.3797 12.938 52.2643L12.3704 53.6592L11.6121 52.4988C10.2439 50.405 9.52303 46.6616 9.9973 44.1121C10.4412 41.7265 12.8539 36.303 13.4713 36.303C13.6664 36.303 13.9491 37.0483 14.0992 37.9588ZM87.2906 39.7157C88.4051 41.9305 88.5738 42.7548 88.5777 46.017C88.5813 49.1925 88.4166 50.0597 87.5077 51.651C86.9167 52.6856 86.2914 53.381 86.1175 53.1964C84.9941 52.003 83.9293 41.3785 84.5828 37.8855C84.9694 35.8204 85.5164 36.1904 87.2906 39.7157ZM6.16751 48.6159C10.4152 52.5695 16.7079 61.471 15.2556 61.471C14.0103 61.471 9.98893 58.8999 7.93598 56.7919C5.71438 54.51 2.86747 49.4994 2.22631 46.742C1.94492 45.5335 1.97575 45.5034 2.95598 46.0293C3.51876 46.3313 4.96401 47.4952 6.16751 48.6159ZM96.4821 46.5689C94.9369 51.5857 92.0742 56.1124 88.9098 58.5427C87.0884 59.941 83.5673 61.6674 83.2287 61.3279C82.4471 60.5442 87.7406 53.3329 92.3146 48.951C95.9784 45.4416 97.011 44.8508 96.4821 46.5689ZM18.5812 51.5362C19.8402 54.9211 21.4197 61.1146 21.4246 62.6852C21.4294 64.2125 20.2981 63.8942 18.1822 61.7725C15.1006 58.6826 14.0169 53.5894 15.3287 48.3646L15.8356 46.3472L16.6335 47.3963C17.0725 47.9734 17.9488 49.8363 18.5812 51.5362ZM83.5387 49.4292C84.2028 52.6366 83.8703 56.3981 82.7232 58.6526C82.2326 59.6174 80.8728 61.2921 79.7019 62.3739L77.5732 64.341L77.4371 62.6962C77.1707 59.4739 81.2665 46.9 82.5831 46.9C82.8205 46.9 83.2507 48.0383 83.5387 49.4292ZM23.9478 58.6464C28.8921 62.4273 34.198 67.9219 34.198 69.2602C34.198 69.9981 32.0473 70.0501 29.5743 69.3728C26.8379 68.6235 24.9835 66.9412 23.5942 63.9476C22.3282 61.2197 21.466 57.4971 22.1005 57.4971C22.2903 57.4971 23.1217 58.0141 23.9478 58.6464ZM76.9127 57.7647C76.9127 58.9317 75.319 63.816 74.4462 65.3225C73.1564 67.5497 70.3875 69.3035 67.5441 69.6943C64.8024 70.0713 63.9477 69.7252 64.5998 68.503C65.4546 66.9019 68.1245 64.1745 72.1643 60.776C75.7202 57.7845 76.9127 57.0282 76.9127 57.7647ZM12.6905 61.6856C16.1975 63.1148 21.6183 66.3134 24.0073 68.3635C26.1875 70.2352 25.9211 70.7257 22.7188 70.7368C17.8255 70.7531 13.4708 68.1983 10.0603 63.3104C8.3552 60.8665 8.25436 60.5879 9.07827 60.5879C9.58292 60.5879 11.2083 61.082 12.6905 61.6856ZM90.1185 60.919C90.108 61.6931 86.0008 66.6653 84.2847 67.9815C82.0847 69.6691 78.8705 70.746 76.0619 70.7368C72.8394 70.7257 72.6002 70.2431 74.8399 68.2694C79.0528 64.5565 90.1423 59.2213 90.1185 60.919ZM45.6649 72.2323L49.426 73.3352L51.9316 72.506C57.9046 70.5306 66.7514 70.2727 73.8302 71.868C78.6358 72.9506 78.7754 73.1414 75.5449 74.2064C68.5437 76.5148 62.2519 76.5289 58.6599 74.2444C56.3312 72.7639 55.5126 72.6747 53.2294 73.6518L51.5921 74.3526L52.6776 75.0868C57.6501 78.451 61.7124 82.2478 61.3865 83.2271C61.2994 83.4903 60.9361 83.8903 60.5798 84.1155C60.0897 84.4255 59.1306 83.7323 56.6426 81.2711C54.8336 79.4811 52.4966 77.4354 51.4494 76.7258L49.5453 75.4348L47.9336 76.2905C47.0476 76.7607 44.6349 78.7848 42.5723 80.7876C40.5096 82.7904 38.7112 84.4299 38.5756 84.4303C38.4404 84.4308 37.9609 84.161 37.5099 83.8303C36.738 83.2642 36.8159 83.0942 38.857 80.8993C40.0486 79.618 42.3732 77.6169 44.0228 76.4525C46.7108 74.5548 46.9336 74.2881 46.1696 73.8779C45.7006 73.6266 44.5077 73.2911 43.5177 73.1321C41.9906 72.8875 41.5163 73.0142 40.3846 73.9688C38.6117 75.4648 34.8092 76.2256 30.9178 75.8631C27.5354 75.5478 23.1437 74.5115 21.4748 73.6346L20.3981 73.069L21.9037 72.5921C22.7315 72.3298 24.5982 71.9086 26.0514 71.6552C27.5046 71.4022 29.1889 71.1068 29.7944 70.9986C30.3999 70.89 33.3723 70.8754 36.3998 70.9655C40.6114 71.0909 42.7876 71.3885 45.6649 72.2323Z" fill="white"/>
</svg>
